<?xml version="1.0" encoding="iso-8859-1"?>
<!-- Generator: Adobe Illustrator 19.0.0, SVG Export Plug-In . SVG Version: 6.00 Build 0)  -->
<svg version="1.1" id="Capa_1" xmlns="http://www.w3.org/2000/svg" xmlns:xlink="http://www.w3.org/1999/xlink" x="0px" y="0px"
	 viewBox="0 0 496 496" style="enable-background:new 0 0 496 496;" xml:space="preserve">
<g>
	<g>
		<path d="M248,240c-4.408,0-8-3.584-8-8s3.592-8,8-8s8,3.584,8,8h16c0-10.416-6.712-19.216-16-22.528V192h-16v17.472
			c-9.288,3.312-16,12.112-16,22.528c0,13.232,10.768,24,24,24c4.408,0,8,3.584,8,8c0,4.416-3.592,8-8,8c-4.408,0-8-3.584-8-8h-16
			c0,10.416,6.712,19.216,16,22.528V312h16v-25.472c9.288-3.312,16-12.112,16-22.528C272,250.768,261.232,240,248,240z"/>
	</g>
</g>
<g>
	<g>
		<path d="M472,128v-8c0-13.232-10.768-24-24-24c-6.168,0-11.744,2.408-16,6.24c-4.256-3.84-9.832-6.24-16-6.24
			c-6.168,0-11.744,2.408-16,6.24c-4.256-3.84-9.832-6.24-16-6.24c-6.168,0-11.744,2.408-16,6.24c-4.256-3.84-9.832-6.24-16-6.24
			c-13.232,0-24,10.768-24,24v8H208v-10.744c0-10.688-4.16-20.736-11.712-28.288L184,76.688V0H64v76.688l-20.288,20.28
			C36.16,104.52,32,114.568,32,125.256V128H0v240h64v8c0,13.232,10.768,24,24,24c6.168,0,11.744-2.408,16-6.24
			c4.256,3.84,9.832,6.24,16,6.24c6.168,0,11.744-2.408,16-6.24c4.256,3.84,9.832,6.24,16,6.24c6.168,0,11.744-2.408,16-6.24
			c4.256,3.84,9.832,6.24,16,6.24c13.232,0,24-10.768,24-24v-8h88v2.744c0,10.688,4.16,20.736,11.712,28.288L328,419.312V496h120
			v-76.688l12.288-12.28c7.552-7.552,11.712-17.6,11.712-28.288V368h24V128H472z M440,120c0-4.416,3.592-8,8-8c4.408,0,8,3.584,8,8
			v8h-16V120z M408,120c0-4.416,3.592-8,8-8c4.408,0,8,3.584,8,8v8h-16V120z M376,120c0-4.416,3.592-8,8-8c4.408,0,8,3.584,8,8v8
			h-16V120z M344,120c0-4.416,3.592-8,8-8c4.408,0,8,3.584,8,8v8h-16V120z M48,125.256c0-6.416,2.496-12.448,7.024-16.976L80,83.312
			V16h88v67.312l16.976,16.968c4.528,4.536,7.024,10.56,7.024,16.976V128h-80v-8H96v16c0,13.232-10.768,24-24,24h-8v72
			c0,4.416-3.592,8-8,8s-8-3.584-8-8V125.256z M96,376c0,4.416-3.592,8-8,8s-8-3.584-8-8v-8h16V376z M128,376c0,4.416-3.592,8-8,8
			s-8-3.584-8-8v-8h16V376z M160,376c0,4.416-3.592,8-8,8s-8-3.584-8-8v-8h16V376z M192,376c0,4.416-3.592,8-8,8s-8-3.584-8-8v-8h16
			V376z M296,264v37.56C282.768,313.424,265.88,320,248,320c-39.696,0-72-32.296-72-72c0-39.704,32.304-72,72-72
			c37.008,0,67.56,28.08,71.536,64.048C306.52,240.304,296,250.928,296,264z M456,378.744c0,6.416-2.496,12.448-7.024,16.976
			L432,412.688V480h-88v-67.312l-24.976-24.968c-4.528-4.536-7.024-10.56-7.024-16.976V264c0-4.416,3.592-8,8-8c4.408,0,8,3.584,8,8
			v72h8c13.232,0,24,10.768,24,24v16h16v-8h80V378.744z M480,352H375.12c-3.2-15.64-15.48-28.008-31.12-31.192V264
			c0-7.112-3.168-13.44-8.096-17.832C334.92,198.496,295.904,160,248,160c-48.52,0-88,39.48-88,88s39.48,88,88,88
			c17.28,0,33.832-4.976,48-14.232V352H16V144h16v88c0,13.232,10.768,24,24,24s24-10.768,24-24v-56.808
			C95.64,172,107.928,159.632,111.12,144H480V352z"/>
	</g>
</g>
<g>
	<g>
		<polygon points="408,160 408,176 448,176 448,216 464,216 464,160 		"/>
	</g>
</g>
<g>
	<g>
		<polygon points="448,280 448,320 408,320 408,336 464,336 464,280 		"/>
	</g>
</g>
<g>
	<g>
		<polygon points="48,320 48,280 32,280 32,336 88,336 88,320 		"/>
	</g>
</g>
<g>
</g>
<g>
</g>
<g>
</g>
<g>
</g>
<g>
</g>
<g>
</g>
<g>
</g>
<g>
</g>
<g>
</g>
<g>
</g>
<g>
</g>
<g>
</g>
<g>
</g>
<g>
</g>
<g>
</g>
</svg>
