<?xml version="1.0"?>
<svg xmlns="http://www.w3.org/2000/svg" viewBox="0 0 64 64" width="512" height="512"><g id="computer-money-financail-worldwide-online"><path d="M34.98,30H29.02a20.617,20.617,0,0,0,.22,2.36,10.76,10.76,0,0,1,5.52,0A20.617,20.617,0,0,0,34.98,30Z"/><path d="M29.64,34.32C30.27,36.65,31.24,38,32,38s1.73-1.35,2.36-3.68a8.862,8.862,0,0,0-4.72,0Z"/><path d="M29.58,24a20.429,20.429,0,0,0-.55,4h5.94a20.429,20.429,0,0,0-.55-4Z"/><path d="M24.94,34.57a11.038,11.038,0,0,1,2.4-1.52A23.513,23.513,0,0,1,27.02,30H23.06A8.95,8.95,0,0,0,24.94,34.57Z"/><path d="M27.52,24H24.53a8.953,8.953,0,0,0-1.47,4h3.97A22.676,22.676,0,0,1,27.52,24Z"/><path d="M40.94,30H36.98a23.513,23.513,0,0,1-.32,3.05,11.038,11.038,0,0,1,2.4,1.52A8.95,8.95,0,0,0,40.94,30Z"/><path d="M50,4H14V22H50ZM22,20H19a1,1,0,0,1-1-1,1,1,0,0,0-1-1,1,1,0,0,1-1-1V14h2v2.171A3.018,3.018,0,0,1,19.829,18H22ZM22,8H19.829A3.018,3.018,0,0,1,18,9.829V12H16V9a1,1,0,0,1,1-1,1,1,0,0,0,1-1,1,1,0,0,1,1-1h3ZM32,20a7,7,0,1,1,7-7A7.008,7.008,0,0,1,32,20Zm16-3a1,1,0,0,1-1,1,1,1,0,0,0-1,1,1,1,0,0,1-1,1H42V18h2.171A3.018,3.018,0,0,1,46,16.171V14h2Zm0-5H46V9.829A3.018,3.018,0,0,1,44.171,8H42V6h3a1,1,0,0,1,1,1,1,1,0,0,0,1,1,1,1,0,0,1,1,1Z"/><path d="M35.32,37.36A9.184,9.184,0,0,0,37.65,36a8.734,8.734,0,0,0-1.44-.95A12.77,12.77,0,0,1,35.32,37.36Z"/><path d="M39.47,24H36.48a22.676,22.676,0,0,1,.49,4h3.97A8.953,8.953,0,0,0,39.47,24Z"/><circle cx="9" cy="29" r="1"/><path d="M57,12H52V23a1,1,0,0,1-1,1H41.79a10.731,10.731,0,0,1,1.16,4h9.23a3,3,0,1,1,0,2H42.95a11,11,0,0,1-21.9,0H11.82a3,3,0,1,1,0-2h9.23a10.731,10.731,0,0,1,1.16-4H13a1,1,0,0,1-1-1V12H7a3.009,3.009,0,0,0-3,3V42H60V15A3.009,3.009,0,0,0,57,12Z"/><circle cx="55" cy="29" r="1"/><circle cx="32" cy="13" r="5"/><path d="M27.79,35.05a8.734,8.734,0,0,0-1.44.95,9.184,9.184,0,0,0,2.33,1.36A12.77,12.77,0,0,1,27.79,35.05Z"/><path d="M44,58H20a1,1,0,0,0-1,1v1H45V59A1,1,0,0,0,44,58Z"/><rect x="26" y="50" width="11" height="6"/><path d="M4,45a3.009,3.009,0,0,0,3,3H57a3.009,3.009,0,0,0,3-3V44H4Z"/></g></svg>
