<svg id="Layer_5" enable-background="new 0 0 64 64" height="512" viewBox="0 0 64 64" width="512" xmlns="http://www.w3.org/2000/svg"><path d="m29 16h10v10h-10z"/><path d="m53 12h2v2h-2z"/><path d="m43 12h8v2h-8z"/><path d="m43 8h12v2h-12z"/><path d="m43 4h12v2h-12z"/><path d="m43 24h9.214v2h-9.214z"/><path d="m43 20h12v2h-12z"/><path d="m43 16h12v2h-12z"/><path d="m39 6.414-5 5-2.707-2.707 1.414-1.414 1.293 1.293 4.586-4.586h-9.586v10h10z"/><path d="m39 6.414 3.707-3.707-1.414-1.414-2.707 2.707h.414z"/><path d="m14.147 33 1.588-10h-3.47l1.588 10z"/><circle cx="14" cy="9" r="6"/><path d="m16.683 17.035c-.226-.017-.452-.035-.683-.035h-4c-.231 0-.457.018-.683.035l.63 3.965h4.106z"/><path d="m8.371 33h3.458l-2.479-15.601c-3.673 1.134-6.35 4.56-6.35 8.601v9c0 1.103.897 2 2 2h1.157l.844-16.053 1.998.105z"/><path d="m18.65 17.399-2.479 15.601h3.459l-.629-11.947 1.998-.105.844 16.052h1.157c1.103 0 2-.897 2-2v-9c0-4.041-2.677-7.467-6.35-8.601z"/><path d="m20.987 58.779-1.252-23.779h-11.47l-1.247 23.722c-.127 1.153.665 2.144 1.761 2.266 1.132.113 2.089-.681 2.209-1.768l1.903-18.22h2.219l1.903 18.227c.111 1.008.966 1.773 1.985 1.773.074 0 .147-.005.232-.014 1.087-.121 1.879-1.111 1.757-2.207z"/><path d="m48.086 36.5-3.086-3.086-15.044 15.044 3.044.761v2.367z"/><path d="m55.636 25c-1.412 0-2.794.572-3.793 1.571l-2.429 2.429 7.586 7.586 2.429-2.429c.999-.999 1.571-2.381 1.571-3.793 0-2.958-2.406-5.364-5.364-5.364z"/><path d="m34.414 53h2.367l.761 3.044 15.044-15.044-3.086-3.086z"/><path d="m31 55v-4.219l-2.207-.552-1.551 8.529 8.529-1.551-.552-2.207z"/><path d="m49.879 29.636h2.243v10.728h-2.243z" transform="matrix(.707 -.707 .707 .707 -9.811 46.314)"/></svg>