<?xml version="1.0" encoding="iso-8859-1"?>
<!-- Generator: Adobe Illustrator 19.1.0, SVG Export Plug-In . SVG Version: 6.00 Build 0)  -->
<svg version="1.1" id="Capa_1" xmlns="http://www.w3.org/2000/svg" xmlns:xlink="http://www.w3.org/1999/xlink" x="0px" y="0px"
	 viewBox="0 0 488.422 488.422" style="enable-background:new 0 0 488.422 488.422;" xml:space="preserve">
<g>
	<g>
		<circle cx="364.797" cy="363.067" r="10.3"/>
		<circle cx="364.897" cy="121.967" r="10.3"/>
		<circle cx="364.797" cy="242.567" r="10.3"/>
		<path d="M476.397,337.867c-3.1-3.1-8.1-3.1-11.2,0l-14,14l-14-14c-3.1-3.1-8.1-3.1-11.2,0s-3.1,8.1,0,11.2l14,14l-14,14
			c-3.1,3.1-3.1,8.1,0,11.2c1.5,1.5,3.6,2.3,5.6,2.3s4-0.8,5.6-2.3l14-14l14,14c1.5,1.5,3.6,2.3,5.6,2.3s4-0.8,5.6-2.3
			c3.1-3.1,3.1-8.1,0-11.2l-14-14l14-14C479.497,345.967,479.497,340.967,476.397,337.867z"/>
		<path d="M476.397,217.367c-3.1-3.1-8.1-3.1-11.2,0l-14,14l-14-14c-3.1-3.1-8.1-3.1-11.2,0s-3.1,8.1,0,11.2l14,14l-14,14
			c-3.1,3.1-3.1,8.1,0,11.2c1.5,1.5,3.6,2.3,5.6,2.3s4-0.8,5.6-2.3l14-14l14,14c1.5,1.5,3.6,2.3,5.6,2.3s4-0.8,5.6-2.3
			c3.1-3.1,3.1-8.1,0-11.2l-14-14l14-14C479.497,225.467,479.497,220.467,476.397,217.367z"/>
		<path d="M394.997,111.667c-5.7,0-10.3,4.6-10.3,10.3s4.6,10.3,10.3,10.3s10.3-4.6,10.3-10.3S400.697,111.667,394.997,111.667z"/>
		<path d="M486.097,98.567c-3.1-3.1-8.1-3.1-11.2,0l-30,30l-10.6-10.5c-3.1-3.1-8.1-3.1-11.2,0c-3.1,3.1-3.1,8.1,0,11.2l16.2,16.2
			c1.3,1.3,3.1,2.1,4.8,2.3c0.3,0,0.5,0,0.8,0c1.8,0,3.5-0.6,5-1.8c0.2-0.2,0.4-0.3,0.6-0.5l35.6-35.6
			C489.197,106.667,489.197,101.667,486.097,98.567z"/>
		<path d="M394.997,232.267c-5.7,0-10.3,4.6-10.3,10.3s4.6,10.3,10.3,10.3c5.7,0,10.3-4.6,10.3-10.3
			S400.697,232.267,394.997,232.267z"/>
		<path d="M394.997,352.767c-5.7,0-10.3,4.6-10.3,10.3c0,5.7,4.6,10.3,10.3,10.3c5.7,0,10.3-4.6,10.3-10.3
			S400.697,352.767,394.997,352.767z"/>
		<path d="M304.597,111.667c-2.7,0-5.4,1.1-7.3,3s-3,4.6-3,7.3s1.1,5.4,3,7.3c1.9,1.9,4.6,3,7.3,3c2.7,0,5.4-1.1,7.3-3
			c1.9-1.9,3-4.6,3-7.3s-1.1-5.4-3-7.3C309.897,112.767,307.297,111.667,304.597,111.667z"/>
		<path d="M304.597,232.267c-5.7,0-10.3,4.6-10.3,10.3s4.6,10.3,10.3,10.3c5.7,0,10.3-4.6,10.3-10.3
			C314.897,236.867,310.297,232.267,304.597,232.267z"/>
		<path d="M304.597,262.367c-5.7,0-10.3,4.6-10.3,10.3c0,5.7,4.6,10.3,10.3,10.3c5.7,0,10.3-4.6,10.3-10.3
			C314.897,266.967,310.297,262.367,304.597,262.367z"/>
		<circle cx="214.197" cy="242.567" r="10.3"/>
		<circle cx="304.597" cy="302.767" r="10.3"/>
		<circle cx="304.597" cy="363.067" r="10.3"/>
		<path d="M183.997,232.267c-2.7,0-5.4,1.1-7.3,3c-1.9,1.9-3,4.6-3,7.3s1.1,5.4,3,7.3s4.6,3,7.3,3s5.4-1.1,7.3-3
			c1.9-1.9,3-4.6,3-7.3s-1.1-5.4-3-7.3C189.397,233.367,186.797,232.267,183.997,232.267z"/>
		<path d="M304.597,141.767c-5.7,0-10.3,4.6-10.3,10.3s4.6,10.3,10.3,10.3c5.7,0,10.3-4.6,10.3-10.3
			C314.897,146.367,310.297,141.767,304.597,141.767z"/>
		<circle cx="304.597" cy="212.367" r="10.3"/>
		<circle cx="334.697" cy="121.967" r="10.3"/>
		<circle cx="334.697" cy="242.567" r="10.3"/>
		<circle cx="304.597" cy="182.267" r="10.3"/>
		<circle cx="274.397" cy="242.567" r="10.3"/>
		<circle cx="334.697" cy="363.067" r="10.3"/>
		<circle cx="244.297" cy="242.567" r="10.3"/>
		<path d="M132.797,138.167c-14.9-11-33.2-18.4-33.2-18.4l-14,44.1l-8.2-23.1c14.6-20.4-1.7-21-3.9-21c-2.2,0-18.6,0.6-3.9,21
			l-8.2,23.1l-14-44.1c0,0-18.3,7.4-33.2,18.4c-3.9,2.9-5.7,4.6-9.2,8.1c-8.3,8.3-4.8,56.1,0,73.7s18.8,42.7,18.8,42.7
			c2.8,6.4,4.6,13.2,5.3,20.1l17.9,175.7c0.6,5.6,5.3,9.8,10.9,9.8h15.5h15.5c5.6,0,10.3-4.3,10.9-9.8l17.9-175.7
			c0.7-7,2.5-13.7,5.3-20.1c0,0,14-25.1,18.8-42.7s8.3-65.4,0-73.7C138.497,142.767,136.697,141.067,132.797,138.167z"/>
		<circle cx="304.597" cy="332.967" r="10.3"/>
		<path d="M73.297,109.767L73.297,109.767c0.1,0,0.2,0,0.2,0c0.1,0,0.2,0,0.2,0l0,0c40.2-0.4,34.4-54.1,34.4-54.1
			c-1.6-35.9-31.7-35.6-34.6-35.5c-3-0.1-33-0.4-34.6,35.5C38.897,55.667,33.097,109.367,73.297,109.767z"/>
	</g>
</g>
<g>
</g>
<g>
</g>
<g>
</g>
<g>
</g>
<g>
</g>
<g>
</g>
<g>
</g>
<g>
</g>
<g>
</g>
<g>
</g>
<g>
</g>
<g>
</g>
<g>
</g>
<g>
</g>
<g>
</g>
</svg>
